<svg width="34" height="38" viewBox="0 0 34 38" fill="none" xmlns="http://www.w3.org/2000/svg">
<path id="Vector" d="M16.9995 37C16.9239 37 16.8497 36.9802 16.784 36.9427L1.20999 27.5699C1.14596 27.5314 1.09296 27.4769 1.05616 27.4117C1.01936 27.3466 1.00001 27.2729 1 27.198V10.7988C1.00112 10.7233 1.02166 10.6493 1.05966 10.5841C1.09764 10.5189 1.15178 10.4646 1.21682 10.4266L16.7775 1.06181C16.8447 1.02137 16.9216 1 17 1C17.0784 1 17.1552 1.02137 17.2224 1.06181L32.7832 10.4266C32.9164 10.5067 32.9986 10.646 33 10.8026V27.198C33 27.2729 32.9807 27.3466 32.9438 27.4117C32.907 27.4769 32.854 27.5314 32.7899 27.5699L17.2301 36.9342C17.1609 36.9774 17.0811 37.0003 16.9995 37ZM17.4324 28.6166V35.8007L32.135 26.9524V11.5686L25.9945 15.2641V23.2943C25.9945 23.3697 25.9749 23.4438 25.9377 23.5093C25.9004 23.5748 25.8468 23.6294 25.7821 23.6677L17.4324 28.6166ZM1.86486 26.9525L16.5675 35.8008V28.6167L8.21788 23.6678C8.15315 23.6295 8.09951 23.5749 8.06224 23.5094C8.02498 23.4439 8.00539 23.3698 8.00538 23.2944V15.2642L1.86486 11.5687V26.9525ZM17.4324 20.417V27.609L25.1297 23.0468V15.7846L17.4324 20.417ZM8.87024 23.0468L16.5675 27.609V20.417L8.87024 15.7847V23.0468ZM9.34842 15.0607L16.9999 19.6656L24.6515 15.0607L16.9999 10.5256L9.34842 15.0607ZM16.9999 9.58805C17.0761 9.58805 17.152 9.60817 17.2199 9.64834L25.495 14.553L31.7271 10.8025L16.9999 1.93953L2.27299 10.8025L8.50492 14.553L16.78 9.64834C16.8467 9.60887 16.9225 9.58805 16.9999 9.58805Z" fill="#313435" stroke="#313435" stroke-width="0.6"/>
</svg>
