<svg width="34" height="34" viewBox="0 0 34 34" fill="none" xmlns="http://www.w3.org/2000/svg">
<path id="Vector" d="M17 1C8.17757 1 1 8.17757 1 17C1 25.8224 8.17757 33 17 33C25.8225 33 33 25.8224 33 17C33 8.17757 25.8225 1 17 1ZM17.3855 1.77594C25.4779 1.97758 32.0224 8.52216 32.2242 16.6145H28.4828C28.2828 10.5854 23.4147 5.71718 17.3855 5.51725V1.77594ZM17.3855 6.28879C22.9896 6.48804 27.512 11.0105 27.7112 16.6145H25.3576C25.1612 12.3074 21.6927 8.83885 17.3855 8.64253V6.28879ZM16.6145 32.2242C8.52216 32.0223 1.97758 25.4778 1.77595 17.3855H5.51725C5.71726 23.4146 10.5854 28.2828 16.6145 28.4828V32.2242ZM16.6145 24.9807V27.7112C10.8825 27.5075 6.28193 22.7808 6.28193 17C6.28193 16.8978 6.24131 16.7997 6.16901 16.7274C6.0967 16.6551 5.99864 16.6145 5.89638 16.6145H1.77595C1.97758 8.52216 8.52216 1.97758 16.6145 1.77594V17C16.6145 17.1022 16.6551 17.2004 16.7274 17.2726C16.7997 17.3449 16.8978 17.3855 17 17.3855C17.1022 17.3855 17.2003 17.3449 17.2726 17.2726C17.3449 17.2004 17.3855 17.1022 17.3855 17V9.41449C21.395 9.61591 24.5952 12.9413 24.5952 17C24.5952 21.188 21.188 24.5952 17 24.5952C16.8978 24.5952 16.7997 24.6358 16.7274 24.7081C16.6551 24.7805 16.6145 24.8785 16.6145 24.9807ZM17.3855 32.2242V25.3575C21.6927 25.1612 25.1612 21.6926 25.3576 17.3855H32.2242C32.0224 25.4778 25.4779 32.0223 17.3855 32.2242Z" fill="#313435" stroke="#313435" stroke-width="0.6"/>
</svg>
