<svg width="32" height="38" viewBox="0 0 32 38" fill="none" xmlns="http://www.w3.org/2000/svg">
<g id="SVG" clip-path="url(#clip0_5_3111)">
<path id="Vector" d="M16.1474 37C16.0324 37 15.922 36.9543 15.8407 36.873C15.7594 36.7916 15.7137 36.6813 15.7137 36.5663V31.5289C7.4946 31.2987 0.879883 24.5411 0.879883 16.2675C0.879883 7.84894 7.72882 1 16.1474 1C16.2624 1 16.3728 1.0457 16.4541 1.12704C16.5354 1.20838 16.5811 1.3187 16.5811 1.43373V6.47113C24.8001 6.70127 31.4149 13.4589 31.4149 21.7325C31.4149 30.1511 24.5659 37 16.1474 37ZM16.5811 36.1261C24.3217 35.8963 30.5474 29.5279 30.5474 21.7325C30.5474 13.9372 24.3217 7.56883 16.5811 7.33895V10.3768C22.6468 10.6058 27.5113 15.6118 27.5113 21.7325C27.5113 25.3008 25.8841 28.592 23.0471 30.7625C23.0019 30.7972 22.9502 30.8226 22.8952 30.8373C22.8402 30.852 22.7828 30.8557 22.7263 30.8481C22.6698 30.8406 22.6154 30.822 22.5661 30.7935C22.5168 30.7649 22.4736 30.7269 22.4391 30.6816C22.4044 30.6364 22.3791 30.5848 22.3644 30.5297C22.3497 30.4747 22.346 30.4173 22.3535 30.3608C22.3611 30.3044 22.3796 30.2499 22.4082 30.2007C22.4368 30.1514 22.4747 30.1082 22.52 30.0736C25.1407 28.0686 26.6438 25.0284 26.6438 21.7325C26.6438 16.09 22.1687 11.4731 16.5811 11.245V36.1261ZM15.7137 1.87389C7.97301 2.10377 1.74736 8.47221 1.74736 16.2675C1.74736 24.0627 7.97301 30.4312 15.7137 30.6611V1.87389Z" fill="#313435" stroke="#313435" stroke-width="0.6"/>
</g>
<defs>
<clipPath id="clip0_5_3111">
<rect width="32" height="38" fill="white"/>
</clipPath>
</defs>
</svg>
