<svg width="21" height="20" viewBox="0 0 21 20" fill="none" xmlns="http://www.w3.org/2000/svg">
<path id="Vector" d="M10.3408 0C4.99316 0 0.65332 4.33984 0.65332 9.6875C0.65332 15.0352 4.99316 19.375 10.3408 19.375C15.6885 19.375 20.0283 15.0352 20.0283 9.6875C20.0283 4.33984 15.6885 0 10.3408 0ZM10.3408 1.375C11.4111 1.375 12.4346 1.60156 13.3721 1.96875L10.8096 3.4375C10.4385 3.05469 10.0557 2.70703 9.68457 2.40625C9.27441 2.07031 8.86816 1.8125 8.46582 1.59375C9.06738 1.45703 9.69629 1.375 10.3408 1.375ZM6.55957 2.40625C6.71582 2.40625 6.92285 2.42578 7.15332 2.5C7.61426 2.65234 8.14941 2.98438 8.77832 3.5C9.0127 3.69141 9.25488 3.94922 9.49707 4.1875L5.99707 6.1875C5.91504 5.86328 5.8252 5.54297 5.77832 5.25C5.64551 4.44922 5.61816 3.78516 5.71582 3.3125C5.81348 2.83984 5.99316 2.60938 6.18457 2.5C6.27832 2.44531 6.40332 2.40625 6.55957 2.40625ZM14.8721 2.71875C15.7744 3.30469 16.5713 4.05469 17.1846 4.9375L13.5283 7.0625C12.958 6.125 12.3643 5.25781 11.7471 4.5L14.8721 2.71875ZM4.24707 4.0625C4.23926 4.50781 4.29004 4.96094 4.37207 5.46875C4.44629 5.92578 4.54004 6.40625 4.68457 6.90625L2.15332 8.375C2.41895 6.72266 3.16113 5.23828 4.24707 4.0625ZM10.4658 5.21875C11.0869 5.95703 11.6924 6.80078 12.2783 7.75L7.71582 10.4062C7.18066 9.41016 6.73145 8.44922 6.40332 7.53125L10.4658 5.21875ZM17.8721 6.15625C18.3252 7.125 18.6064 8.21484 18.6533 9.34375L15.5283 11.0938C15.1846 10.1719 14.7354 9.21094 14.2158 8.25L17.8721 6.15625ZM5.15332 8.28125C5.49707 9.20312 5.94629 10.1641 6.46582 11.125L2.80957 13.2188C2.35645 12.25 2.0752 11.1602 2.02832 10.0312L5.15332 8.28125ZM12.9658 8.96875C13.501 9.96484 13.9502 10.9258 14.2783 11.8438L10.2158 14.1562C9.59473 13.418 8.98926 12.5742 8.40332 11.625L12.9658 8.96875ZM18.5283 11C18.2627 12.6523 17.5205 14.1367 16.4346 15.3125C16.4424 14.8672 16.3916 14.4141 16.3096 13.9062C16.2354 13.4492 16.1416 12.9688 15.9971 12.4688L18.5283 11ZM7.15332 12.3125C7.72363 13.25 8.31738 14.1172 8.93457 14.875L5.80957 16.6562C4.90723 16.0703 4.11035 15.3203 3.49707 14.4375L7.15332 12.3125ZM14.6846 13.1875C14.7666 13.5117 14.8564 13.832 14.9033 14.125C15.0361 14.9258 15.0635 15.5898 14.9658 16.0625C14.8682 16.5352 14.6885 16.7656 14.4971 16.875C14.3057 16.9844 13.9893 17.0273 13.5283 16.875C13.0674 16.7227 12.5322 16.3906 11.9033 15.875C11.6689 15.6836 11.4268 15.4258 11.1846 15.1875L14.6846 13.1875ZM9.87207 15.9375C10.2432 16.3203 10.626 16.668 10.9971 16.9688C11.4072 17.3047 11.8135 17.5625 12.2158 17.7812C11.6143 17.918 10.9854 18 10.3408 18C9.27051 18 8.24707 17.7734 7.30957 17.4062L9.87207 15.9375Z" fill="#0D0D12"/>
</svg>
