<svg width="167" height="32" viewBox="0 0 167 32" fill="none" xmlns="http://www.w3.org/2000/svg">
<g id="logo-32 2">
<path id="Vector" d="M17.4386 19.9219C17.5056 19.9563 17.5643 19.9903 17.6288 20.0254L23.8741 27.4412L17.5556 19.9374L7.31055 18.7109L17.4386 19.9219Z" stroke="#FFD60A" stroke-width="1.2" stroke-miterlimit="10"/>
<path id="Vector_2" d="M3.24342 8.79807C3.20813 8.8103 3.19069 8.8481 3.20547 8.88276L7.30752 18.6977L17.5527 19.9242C17.5492 19.9113 17.5342 19.8656 17.5241 19.838L22.9184 2.29221C22.93 2.25323 22.9171 2.2153 22.8934 2.18854C22.8862 2.1822 22.8764 2.17655 22.8685 2.16763C22.8425 2.15255 22.8119 2.14143 22.7766 2.15366L3.24342 8.79807Z" stroke="#FFD60A" stroke-width="1.2" stroke-miterlimit="10"/>
<path id="Vector_3" d="M7.30898 18.7102L17.4402 19.923C17.5047 19.9581 17.5634 19.992 17.6304 20.0265L23.8757 27.4423L17.554 19.9366C17.5506 19.9237 17.5389 19.88 17.5255 19.8504L22.9223 2.30394C22.9339 2.26495 22.921 2.22702 22.8974 2.20027C23.1106 2.3693 23.2772 2.60053 23.3574 2.87977L28.998 22.5245C29.1508 23.0546 28.9649 23.6261 28.5291 23.9638L24.3603 27.2046C24.1826 27.3434 23.9731 27.4355 23.751 27.4702L7.89689 30.0423C7.22101 30.1519 6.56988 29.7362 6.38518 29.0766L0.846739 9.32997C0.688896 8.7708 0.90672 8.17426 1.38728 7.84937L6.21312 4.57292C6.37393 4.46353 6.5605 4.38862 6.75363 4.35886L21.851 1.92373C22.2256 1.86182 22.5901 1.96817 22.8732 2.18193C22.8464 2.16427 22.814 2.15641 22.7813 2.16796L3.24488 8.81048M7.30898 18.7102C7.31105 18.7179 7.31054 18.7263 7.31261 18.734L6.80959 29.6746M7.30898 18.7102L3.20693 8.89517C3.19215 8.86051 3.20959 8.82272 3.24488 8.81048M3.24488 8.81048L0.953969 8.41268" stroke="#FFD60A" stroke-width="1.2" stroke-miterlimit="10"/>
<path id="Vector_4" d="M55.0158 22.4132L51.3111 17.2676C53.4982 16.5012 54.748 14.7933 54.748 12.4286C54.748 9.10038 52.2931 7.08594 48.2313 7.08594H42.1387V22.4132H44.3704V17.7493H48.2313C48.5661 17.7493 48.9008 17.7274 49.2133 17.7055L52.5832 22.4132H55.0158ZM48.1644 15.8881H44.3704V8.9909H48.1644C51.021 8.9909 52.5162 10.2389 52.5162 12.4286C52.5162 14.6182 51.021 15.8881 48.1644 15.8881Z" fill="#1F2426"/>
<path id="Vector_5" d="M58.041 22.4097H60.1835V10.8047H58.041V22.4097Z" fill="#1F2426"/>
<path id="Vector_6" d="M65.8807 20.6799L72.866 12.1842V10.8047H63.2696V12.5345H70.121L63.1357 21.0521V22.4097H73.0446V20.6799H65.8807Z" fill="#1F2426"/>
<path id="Vector_7" d="M80.2194 10.6953C78.3224 10.6953 76.5593 11.2208 75.3319 12.1842L76.2246 13.7607C77.1396 12.9944 78.5679 12.5126 79.9739 12.5126C82.094 12.5126 83.1429 13.5418 83.1429 15.3153V15.7314H79.7507C76.2246 15.7314 74.9971 17.2641 74.9971 19.1253C74.9971 21.1397 76.6932 22.5411 79.3713 22.5411C81.2236 22.5411 82.5404 21.928 83.2545 20.877V22.4097H85.2854V15.4029C85.2854 12.228 83.4554 10.6953 80.2194 10.6953ZM79.7284 20.9208C78.0992 20.9208 77.1172 20.1982 77.1172 19.0377C77.1172 18.0524 77.7198 17.2422 79.84 17.2422H83.1429V18.8625C82.6073 20.1982 81.3352 20.9208 79.7284 20.9208Z" fill="#1F2426"/>
<path id="Vector_8" d="M107.742 7.08594H105.532L100.511 15.1656L95.512 7.08594H93.124L99.3282 17.0705V22.4132H101.538V17.1143L107.742 7.08594Z" fill="#1F2426"/>
<path id="Vector_9" d="M108.844 22.4097H110.986V10.8047H108.844V22.4097Z" fill="#1F2426"/>
<path id="Vector_10" d="M115.077 22.411H117.219V6.16406H115.077V22.411Z" fill="#1F2426"/>
<path id="Vector_11" d="M136.106 10.6953C134.098 10.6953 132.446 11.5273 131.554 12.8411C130.773 11.3959 129.255 10.6953 127.447 10.6953C125.662 10.6953 124.211 11.3521 123.363 12.5345V10.8047H121.31V22.4097H123.453V16.4321C123.453 13.914 124.858 12.5783 127.001 12.5783C128.943 12.5783 130.058 13.695 130.058 15.9722V22.4097H132.201V16.4321C132.201 13.914 133.607 12.5783 135.749 12.5783C137.691 12.5783 138.807 13.695 138.807 15.9722V22.4097H140.949V15.7314C140.949 12.3156 138.985 10.6953 136.106 10.6953Z" fill="#1F2426"/>
<path id="Vector_12" d="M149.199 10.6953C147.302 10.6953 145.539 11.2208 144.311 12.1842L145.204 13.7607C146.119 12.9944 147.547 12.5126 148.953 12.5126C151.073 12.5126 152.122 13.5418 152.122 15.3153V15.7314H148.73C145.204 15.7314 143.976 17.2641 143.976 19.1253C143.976 21.1397 145.673 22.5411 148.351 22.5411C150.203 22.5411 151.52 21.928 152.234 20.877V22.4097H154.265V15.4029C154.265 12.228 152.435 10.6953 149.199 10.6953ZM148.708 20.9208C147.079 20.9208 146.097 20.1982 146.097 19.0377C146.097 18.0524 146.699 17.2422 148.819 17.2422H152.122V18.8625C151.587 20.1982 150.315 20.9208 148.708 20.9208Z" fill="#1F2426"/>
<path id="Vector_13" d="M159.836 20.6799L166.822 12.1842V10.8047H157.225V12.5345H164.077L157.091 21.0521V22.4097H167V20.6799H159.836Z" fill="#1F2426"/>
</g>
</svg>
