<svg width="138" height="32" viewBox="0 0 138 32" fill="none" xmlns="http://www.w3.org/2000/svg">
<g id="Logo">
<g id="Vector">
<path d="M49.7558 22.4793L46.9027 18.0928C48.587 17.4395 49.5496 15.9836 49.5496 13.9677C49.5496 11.1305 47.6589 9.41322 44.5308 9.41322H39.8386V22.4793H41.5573V18.5035H44.5308C44.7886 18.5035 45.0464 18.4848 45.287 18.4661L47.8824 22.4793H49.7558ZM44.4792 16.9169H41.5573V11.0371H44.4792C46.6792 11.0371 47.8308 12.1011 47.8308 13.9677C47.8308 15.8343 46.6792 16.9169 44.4792 16.9169Z" fill="#101828"/>
<path d="M52.0858 22.4793H53.7358V12.5864H52.0858V22.4793Z" fill="#101828"/>
<path d="M58.1237 21.0047L63.5035 13.7623V12.5864L56.1128 12.5864V14.061H61.3894L56.0097 21.322V22.4793H63.641V21.0047H58.1237Z" fill="#101828"/>
<path d="M69.1665 12.4931C67.7056 12.4931 66.3477 12.9411 65.4024 13.7623L66.0899 15.1063C66.7946 14.453 67.8946 14.0423 68.9774 14.0423C70.6102 14.0423 71.4181 14.9196 71.4181 16.4316V16.7862H68.8056C66.0899 16.7862 65.1446 18.0928 65.1446 19.6794C65.1446 21.3967 66.4509 22.5913 68.5134 22.5913C69.9399 22.5913 70.954 22.0686 71.504 21.1727V22.4793H73.0681V16.5062C73.0681 13.7997 71.6587 12.4931 69.1665 12.4931ZM68.7884 21.21C67.5337 21.21 66.7774 20.594 66.7774 19.6047C66.7774 18.7648 67.2415 18.0741 68.8743 18.0741H71.4181V19.4554C71.0056 20.594 70.0259 21.21 68.7884 21.21Z" fill="#101828"/>
<path d="M90.3624 9.41322H88.6608L84.7936 16.3009L80.9436 9.41322H79.1045L83.8827 17.9248V22.4793H85.5843V17.9622L90.3624 9.41322Z" fill="#101828"/>
<path d="M91.211 22.4793H92.8611V12.5864H91.211V22.4793Z" fill="#101828"/>
<path d="M96.0115 22.4793H97.6615V8.62926H96.0115V22.4793Z" fill="#101828"/>
<path d="M112.207 12.4931C110.66 12.4931 109.389 13.2024 108.701 14.3223C108.099 13.0904 106.931 12.4931 105.539 12.4931C104.163 12.4931 103.046 13.053 102.393 14.061V12.5864H100.812V22.4793H102.462V17.3835C102.462 15.2369 103.545 14.0983 105.195 14.0983C106.69 14.0983 107.549 15.0503 107.549 16.9915V22.4793H109.199V17.3835C109.199 15.2369 110.282 14.0983 111.932 14.0983C113.428 14.0983 114.287 15.0503 114.287 16.9915V22.4793H115.937V16.7862C115.937 13.8743 114.424 12.4931 112.207 12.4931Z" fill="#101828"/>
<path d="M122.29 12.4931C120.829 12.4931 119.471 12.9411 118.526 13.7623L119.214 15.1063C119.918 14.453 121.018 14.0423 122.101 14.0423C123.734 14.0423 124.542 14.9196 124.542 16.4316V16.7862H121.929C119.214 16.7862 118.268 18.0928 118.268 19.6794C118.268 21.3967 119.575 22.5913 121.637 22.5913C123.064 22.5913 124.078 22.0686 124.628 21.1727V22.4793H126.192V16.5062C126.192 13.7997 124.782 12.4931 122.29 12.4931ZM121.912 21.21C120.657 21.21 119.901 20.594 119.901 19.6047C119.901 18.7648 120.365 18.0741 121.998 18.0741H124.542V19.4554C124.129 20.594 123.15 21.21 121.912 21.21Z" fill="#101828"/>
<path d="M130.483 21.0047L135.863 13.7624V12.5864H128.472V14.061L133.748 14.061L128.369 21.322V22.4793H136V21.0047H130.483Z" fill="#101828"/>
<path d="M20.8168 20.362C20.8684 20.3913 20.9136 20.4202 20.9633 20.4502L25.773 26.7719L20.907 20.3752L13.0168 19.3297L20.8168 20.362Z" fill="#FFD60A"/>
<path d="M9.88477 10.8858C9.85759 10.8962 9.84416 10.9284 9.85555 10.958L13.0147 19.325L20.9049 20.3705C20.9023 20.3595 20.8907 20.3206 20.8829 20.297L25.0373 5.33976C25.0462 5.30652 25.0363 5.27419 25.0181 5.25138C25.0125 5.24597 25.005 5.24115 24.9989 5.23355C24.9788 5.2207 24.9553 5.21122 24.9281 5.22164L9.88477 10.8858Z" fill="#FFD60A"/>
<path d="M25.3756 5.8299C25.3138 5.59186 25.1856 5.39474 25.0213 5.25065C25.0396 5.27345 25.0495 5.30579 25.0406 5.33902L20.8842 20.2969C20.8945 20.322 20.9036 20.3593 20.9062 20.3703L25.7748 26.7687L20.965 20.4469C20.9134 20.4176 20.8682 20.3887 20.8185 20.3587L13.016 19.3248L9.85684 10.9578C9.84546 10.9283 9.85889 10.8961 9.88607 10.8857L24.9319 5.2231C24.9571 5.21326 24.9821 5.21996 25.0027 5.23501C24.7847 5.05279 24.504 4.96213 24.2155 5.01491L12.5883 7.09078C12.4396 7.11615 12.2959 7.18001 12.172 7.27326L8.45545 10.0663C8.08535 10.3433 7.91759 10.8518 8.03915 11.3285L12.3045 28.1619C12.4468 28.7242 12.9483 29.0786 13.4688 28.9851L25.6787 26.7925C25.8498 26.7629 26.0111 26.6844 26.148 26.5661L29.3586 23.8034C29.6942 23.5155 29.8374 23.0284 29.7197 22.5764L25.3756 5.8299Z" fill="#FFD60A"/>
</g>
</g>
</svg>
