<svg width="56" height="57" viewBox="0 0 56 57" fill="none" xmlns="http://www.w3.org/2000/svg">
<path fill-rule="evenodd" clip-rule="evenodd" d="M56 28.4111C56 43.8751 43.464 56.4111 28 56.4111C12.536 56.4111 0 43.8751 0 28.4111C0 12.9472 12.536 0.411133 28 0.411133C43.464 0.411133 56 12.9472 56 28.4111ZM42.1914 45.0913C43.4481 44.039 44.3242 42.602 44.8688 40.6972C45.5962 38.1671 45.9053 35.5332 45.7838 32.9017C45.7324 32.1516 45.5686 31.4138 45.298 30.7132C45.1345 30.2106 44.8036 29.7806 44.3614 29.496C43.9192 29.2114 43.3931 29.0899 42.8725 29.1521C42.4861 29.2068 42.1085 29.3115 41.7487 29.4636L41.6726 29.4915C41.5426 29.5392 41.4094 29.5881 41.2738 29.6324C41.1111 29.2506 40.8631 28.9116 40.5492 28.6423C40.2354 28.3729 39.8642 28.1803 39.4644 28.0796C38.4836 27.8123 37.6759 28.0305 37.0625 28.7286C36.7334 28.1963 36.2865 27.6568 35.5069 27.518C34.8322 27.398 34.2836 27.6649 33.6404 28.1469C33.6412 28.0686 33.6425 27.9959 33.6437 27.9277C33.6504 27.7452 33.6481 27.5624 33.6366 27.3801C33.6026 26.9597 33.5691 26.5392 33.5361 26.1187C33.4254 24.7183 33.3109 23.2702 33.1653 21.8492C33.0467 20.6877 32.7131 19.7298 32.1456 18.9207C31.5652 18.0927 30.7556 17.9214 29.866 18.4386C29.6282 18.573 29.42 18.755 29.2543 18.9734C29.0885 19.1918 28.9686 19.442 28.9019 19.7087C28.7893 20.107 28.7215 20.517 28.7001 20.9306L28.6747 21.6303C28.6153 23.2442 28.5541 24.9131 28.5526 26.5553C28.5513 27.8504 28.5905 29.1176 28.6319 30.4586L28.6322 30.4695L28.6353 30.5687L28.6353 30.5696C28.6506 31.0671 28.666 31.5673 28.679 32.0715L28.6417 32.0408C28.5392 31.9564 28.4424 31.8772 28.3408 31.8046C26.895 30.7733 25.3769 30.4192 23.8299 30.7516C23.5022 30.8162 23.1953 30.9613 22.9365 31.1743C22.6777 31.3872 22.475 31.6612 22.3462 31.972C22.2158 32.2962 22.1666 32.6478 22.2031 32.9958C22.2396 33.3436 22.3605 33.677 22.5553 33.9665C22.8225 34.3413 23.1364 34.6798 23.4893 34.9736C24.6151 35.9981 25.4493 37.0541 26.0394 38.2016C26.9271 39.9275 27.9213 41.7429 29.0801 43.7518C29.3851 44.2803 29.8688 44.7099 30.2561 45.0247C30.9908 45.6226 31.8679 46.1113 33.0161 46.5631C34.0356 46.9689 35.1218 47.177 36.2177 47.1768C37.4569 47.1618 38.6841 46.9301 39.8448 46.4921C40.7026 46.1683 41.4971 45.6941 42.1914 45.0913ZM31.135 43.6428C30.8857 43.4724 30.6685 43.2586 30.4937 43.0111C30.0621 42.3804 29.6619 41.7286 29.2949 41.0574C28.7699 40.0743 28.2431 39.0234 27.6843 37.8442C26.786 35.9495 25.6721 34.5001 24.2789 33.4131C24.2624 33.4009 24.2468 33.3876 24.2322 33.3732C24.1889 33.3281 24.1439 33.2835 24.0984 33.2386L24.0981 33.2384C23.8048 32.9483 23.5277 32.6744 23.7072 32.2273C23.8907 31.7702 24.3616 31.7297 24.7908 31.7297H24.7991C25.3401 31.7215 25.8773 31.8217 26.3795 32.0245C26.8818 32.2273 27.3393 32.5287 27.7253 32.9111C28.116 33.2844 28.3772 33.7745 28.4704 34.3091C28.5929 34.9982 28.9884 35.0874 29.2124 35.0781C29.5772 35.0641 29.86 34.7594 29.9512 34.2838C29.9785 34.1129 29.9882 33.9395 29.9801 33.7665C29.9456 31.9485 29.9114 30.1668 29.8707 28.3566C29.8617 27.9609 29.8463 27.5586 29.8312 27.1696L29.8311 27.1681C29.8022 26.4231 29.7722 25.6534 29.7882 24.8979C29.8198 23.4174 29.919 21.9444 30.0149 20.5194L30.015 20.5194L30.0157 20.508C30.0663 19.7546 30.1883 19.5668 30.8725 19.2369C31.334 19.5744 31.608 20.0619 31.7334 20.7682C31.9144 21.7574 32.0413 22.756 32.1137 23.7593C32.214 25.2471 32.2888 26.7622 32.3611 28.2272C32.3943 28.8979 32.4283 29.5687 32.463 30.2393C32.4796 30.5533 32.5581 30.9803 33.0442 31.062C33.5386 31.1452 33.7412 30.7284 33.8621 30.4792L33.9751 30.2439L33.9798 30.2342L33.9798 30.2341C34.1735 29.83 34.3736 29.4126 34.6024 29.0226C34.7181 28.8248 34.9788 28.5095 35.4272 28.6177C35.5899 28.6575 35.737 28.7455 35.8499 28.8702C35.9627 28.995 36.036 29.151 36.0604 29.3181C36.1267 29.6673 36.1701 30.0204 36.1906 30.3753C36.1966 30.5051 36.1928 30.6352 36.1794 30.7644C36.1729 30.8488 36.1665 30.9332 36.1646 31.0176C36.1573 31.376 36.3319 31.6031 36.6573 31.6568C36.7295 31.6762 36.805 31.6806 36.8791 31.6698C36.9531 31.6589 37.024 31.6332 37.088 31.594C37.1519 31.5547 37.2072 31.5028 37.2508 31.4415C37.2943 31.3802 37.3251 31.3106 37.3413 31.2369C37.359 31.1765 37.3753 31.1158 37.3918 31.055L37.396 31.0394C37.4156 30.9671 37.4352 30.8951 37.4571 30.8232C37.4825 30.741 37.5059 30.6581 37.5294 30.5749L37.5326 30.5636C37.5868 30.3521 37.6558 30.1446 37.7389 29.9428L37.7502 29.9169C37.9618 29.4372 38.1622 28.983 38.7696 29.04C39.4423 29.1019 39.8929 29.442 40.1087 30.0511C40.1839 30.2929 40.234 30.5417 40.2584 30.7938L40.2796 30.9521C40.2904 31.0513 40.2931 31.1515 40.2875 31.2512L40.2875 31.2522V31.2522C40.2858 31.318 40.2842 31.3839 40.2864 31.4494C40.307 32.0295 40.4643 32.2959 40.8301 32.3691C41.282 32.4588 41.4763 32.1394 41.6471 31.8572L41.6681 31.8226C41.7023 31.7666 41.736 31.71 41.7697 31.6534L41.7838 31.6297C41.942 31.3428 42.1274 31.0719 42.3371 30.8207C42.622 30.5034 42.9644 30.3518 43.271 30.4045C43.5575 30.4533 43.796 30.6735 43.9432 31.0242C44.1887 31.6093 44.519 32.4869 44.5502 33.3458C44.6328 35.6259 44.3408 37.904 43.686 40.088C43.4014 41.0238 42.9813 41.9122 42.439 42.7237C41.7189 43.8037 40.615 44.5674 39.0647 45.0586C36.2908 45.9367 33.6977 45.4736 31.135 43.6428ZM15.419 18.2387C15.5386 18.3461 15.663 18.4569 15.792 18.5715C15.7954 18.5296 15.7996 18.489 15.804 18.4498C15.8264 18.2653 15.8396 18.0797 15.8435 17.8938C15.8435 16.8667 15.8427 15.8397 15.841 14.8126L15.8409 14.7448C15.838 12.9283 15.835 11.0521 15.8469 9.20608C15.8511 8.51824 15.9012 7.82119 15.9498 7.1466L15.9507 7.13423C15.9695 6.87293 15.9882 6.61164 16.0045 6.35034C16.0414 5.76041 16.2732 5.44561 16.6936 5.41395C17.0259 5.38809 17.4402 5.52854 17.5327 6.3325C17.5553 6.56535 17.5642 6.79944 17.5595 7.03345V7.05164C17.5595 7.15798 17.5595 7.26464 17.5625 7.3701L17.6159 9.34389C17.6949 12.3391 17.7779 15.3344 17.865 18.3299C17.8761 18.556 17.9001 18.7812 17.9367 19.0042C17.9496 19.0923 17.9625 19.1802 17.9737 19.2682L18.0371 19.3012L19.3323 17.3442C19.3687 17.2872 19.4024 17.2284 19.4331 17.1678C19.4993 17.0027 19.6123 16.8633 19.7565 16.7685C19.9646 16.6664 20.3842 16.5333 20.6362 16.6813C20.8841 16.8267 20.9816 17.2775 21 17.521C20.9811 17.7755 20.8833 18.0163 20.7217 18.2061L20.3134 18.8081C19.6213 19.8283 18.9054 20.8833 18.1679 21.8953C18.0802 22.0367 17.9641 22.1561 17.8279 22.245C17.6917 22.3339 17.5386 22.3901 17.3796 22.4096C17.3631 22.4111 17.3464 22.4111 17.33 22.4111C17.158 22.3977 16.9903 22.3478 16.837 22.2645C16.6837 22.1811 16.5478 22.066 16.4376 21.926C15.4937 20.9056 14.5592 19.8412 13.6563 18.8119L13.3218 18.4309L13.3201 18.429C13.173 18.2601 12.7344 17.7568 13.2291 17.2715C13.5467 16.9598 13.9563 16.973 14.3529 17.3052C14.7027 17.5983 15.0507 17.9094 15.419 18.2387Z" fill="#313435"/>
</svg>
